<?xml version="1.0" encoding="UTF-8"?>
<svg width="14px" height="25px" viewBox="0 0 14 25" version="1.1" xmlns="http://www.w3.org/2000/svg" xmlns:xlink="http://www.w3.org/1999/xlink">
    <!-- Generator: Sketch 52.5 (67469) - http://www.bohemiancoding.com/sketch -->
    <title>facebook-logo</title>
    <desc>Created with Sketch.</desc>
    <g id="Page-1" stroke="none" stroke-width="1" fill="none" fill-rule="evenodd">
        <g id="Desktop-HD" transform="translate(-1614.000000, -606.000000)" fill="#303030">
            <g id="facebook-logo" transform="translate(1614.000000, 606.000000)">
                <path d="M12.6572608,0.00505390836 L9.5074124,0 C5.96866577,0 3.68177224,2.34627695 3.68177224,5.9777628 L3.68177224,8.73391173 L0.514740566,8.73391173 C0.241071429,8.73391173 0.0194575472,8.9557783 0.0194575472,9.22944744 L0.0194575472,13.2227931 C0.0194575472,13.4964623 0.241324124,13.7180761 0.514740566,13.7180761 L3.68177224,13.7180761 L3.68177224,23.7945586 C3.68177224,24.0682278 3.90338612,24.2898416 4.17705526,24.2898416 L8.30913073,24.2898416 C8.58279987,24.2898416 8.80441375,24.0679751 8.80441375,23.7945586 L8.80441375,13.7180761 L12.5074124,13.7180761 C12.7810815,13.7180761 13.0026954,13.4964623 13.0026954,13.2227931 L13.0042116,9.22944744 C13.0042116,9.09804582 12.9519036,8.9722035 12.8591644,8.87921159 C12.7664252,8.78621968 12.6400775,8.73391173 12.5086759,8.73391173 L8.80441375,8.73391173 L8.80441375,6.39748989 C8.80441375,5.27451146 9.07201819,4.70443059 10.534872,4.70443059 L12.6567554,4.70367251 C12.9301718,4.70367251 13.1517857,4.48180593 13.1517857,4.20838949 L13.1517857,0.500336927 C13.1517857,0.227173181 12.9304245,0.00555929919 12.6572608,0.00505390836 Z" id="Path"></path>
            </g>
        </g>
    </g>
</svg>