<?xml version="1.0" encoding="UTF-8"?>
<svg width="23px" height="23px" viewBox="0 0 23 23" version="1.1" xmlns="http://www.w3.org/2000/svg" xmlns:xlink="http://www.w3.org/1999/xlink">
    <!-- Generator: Sketch 52.5 (67469) - http://www.bohemiancoding.com/sketch -->
    <title>instagram</title>
    <desc>Created with Sketch.</desc>
    <g id="Page-1" stroke="none" stroke-width="1" fill="none" fill-rule="evenodd">
        <g id="Desktop-HD" transform="translate(-1609.000000, -744.000000)" fill="#282828">
            <g id="instagram" transform="translate(1609.000000, 744.000000)">
                <path d="M15.8125,0 L7.1875,0 C3.2185625,0 0,3.2185625 0,7.1875 L0,15.8125 C0,19.7814375 3.2185625,23 7.1875,23 L15.8125,23 C19.7814375,23 23,19.7814375 23,15.8125 L23,7.1875 C23,3.2185625 19.7814375,0 15.8125,0 Z M20.84375,15.8125 C20.84375,18.586875 18.586875,20.84375 15.8125,20.84375 L7.1875,20.84375 C4.413125,20.84375 2.15625,18.586875 2.15625,15.8125 L2.15625,7.1875 C2.15625,4.413125 4.413125,2.15625 7.1875,2.15625 L15.8125,2.15625 C18.586875,2.15625 20.84375,4.413125 20.84375,7.1875 L20.84375,15.8125 Z" id="Shape" fill-rule="nonzero"></path>
                <path d="M11.5,5.75 C8.3245625,5.75 5.75,8.3245625 5.75,11.5 C5.75,14.6754375 8.3245625,17.25 11.5,17.25 C14.6754375,17.25 17.25,14.6754375 17.25,11.5 C17.25,8.3245625 14.6754375,5.75 11.5,5.75 Z M11.5,15.09375 C9.519125,15.09375 7.90625,13.480875 7.90625,11.5 C7.90625,9.5176875 9.519125,7.90625 11.5,7.90625 C13.480875,7.90625 15.09375,9.5176875 15.09375,11.5 C15.09375,13.480875 13.480875,15.09375 11.5,15.09375 Z" id="Shape" fill-rule="nonzero"></path>
                <circle id="Oval" cx="17.45" cy="5.85" r="1.25"></circle>
            </g>
        </g>
    </g>
</svg>